<?xml version="1.0" encoding="utf-8"?>
<!-- Generator: Adobe Illustrator 12.0.0, SVG Export Plug-In  -->
<!DOCTYPE svg PUBLIC "-//W3C//DTD SVG 1.1//EN" "http://www.w3.org/Graphics/SVG/1.1/DTD/svg11.dtd" [
	<!ENTITY ns_flows "http://ns.adobe.com/Flows/1.0/">
	<!ENTITY ns_svg "http://www.w3.org/2000/svg">
	<!ENTITY ns_xlink "http://www.w3.org/1999/xlink">
]>
<svg  version="1.1" xmlns="&ns_svg;" xmlns:xlink="&ns_xlink;" xmlns:a="http://ns.adobe.com/AdobeSVGViewerExtensions/3.0/"
	 width="131" height="57" viewBox="-0.264 -0.714 131 57" enable-background="new -0.264 -0.714 131 57" xml:space="preserve">
<defs>
</defs>
<path fill="none" d="M57.452,3.711c-3.679,0-6.665,1.326-8.96,3.979c-2.295,2.653-3.442,6.136-3.442,10.449
	c0,4.313,1.119,7.784,3.357,10.413c2.238,2.629,5.155,3.943,8.752,3.943c3.841,0,6.868-1.253,9.082-3.76
	c2.213-2.506,3.32-6.014,3.32-10.522c0-4.622-1.074-8.195-3.223-10.718C64.19,4.973,61.228,3.711,57.452,3.711z"/>
<path fill="none" d="M88.313,4.297h-5.469v27.588h5.225c4.59,0,8.162-1.229,10.718-3.687c2.555-2.458,3.833-5.94,3.833-10.449
	C102.619,8.781,97.85,4.297,88.313,4.297z"/>
<path fill="none" d="M20.084,52.047c-0.321,0.224-0.481,0.621-0.481,1.191c0,0.415,0.148,0.754,0.444,1.017
	c0.296,0.263,0.69,0.394,1.183,0.394c0.675,0,1.233-0.237,1.673-0.71c0.44-0.473,0.66-1.072,0.66-1.797v-0.847l-2.05,0.282
	C20.881,51.667,20.405,51.823,20.084,52.047z"/>
<path fill="none" d="M102.412,48.042c-0.875,0-1.566,0.298-2.075,0.893c-0.509,0.595-0.764,1.415-0.764,2.461
	c0,1.007,0.257,1.801,0.772,2.382s1.204,0.872,2.067,0.872c0.88,0,1.556-0.285,2.03-0.855c0.473-0.57,0.71-1.381,0.71-2.432
	c0-1.063-0.237-1.881-0.71-2.457C103.968,48.33,103.292,48.042,102.412,48.042z"/>
<path d="M19.754,24.902c-0.423,0.944-0.985,2.376-1.685,4.297h-0.146c-0.244-0.928-0.781-2.327-1.611-4.199L5.57,0.586H0.15v35.01
	h3.955V12.158c0-3.174-0.065-5.461-0.195-6.86h0.097c0.358,1.611,0.708,2.807,1.05,3.588l11.938,26.709h2.002L30.96,8.692
	c0.309-0.684,0.659-1.815,1.05-3.394h0.097c-0.228,2.685-0.342,4.956-0.342,6.811v23.486h4.077V0.586h-5.127L19.754,24.902z"/>
<path d="M57.745,0c-5.241,0-9.383,1.677-12.427,5.029c-3.044,3.353-4.565,7.845-4.565,13.477c0,5.241,1.493,9.497,4.48,12.769
	c2.986,3.271,6.962,4.907,11.926,4.907c5.078,0,9.131-1.66,12.158-4.98c3.028-3.32,4.541-7.837,4.541-13.55
	c0-5.257-1.477-9.513-4.431-12.769C66.473,1.628,62.579,0,57.745,0z M66.241,28.735c-2.214,2.507-5.241,3.76-9.082,3.76
	c-3.597,0-6.514-1.314-8.752-3.943c-2.238-2.628-3.357-6.099-3.357-10.413c0-4.313,1.147-7.796,3.442-10.449
	c2.295-2.653,5.281-3.979,8.96-3.979c3.776,0,6.738,1.261,8.887,3.784c2.148,2.523,3.223,6.096,3.223,10.718
	C69.561,22.722,68.454,26.229,66.241,28.735z"/>
<path d="M88.41,0.586h-9.668v35.01h9.277c5.745,0,10.331-1.64,13.757-4.919c3.426-3.279,5.139-7.621,5.139-13.025
	C106.916,6.274,100.748,0.586,88.41,0.586z M98.786,28.198c-2.555,2.458-6.128,3.687-10.718,3.687h-5.225V4.297h5.469
	c9.538,0,14.307,4.484,14.307,13.452C102.619,22.258,101.342,25.741,98.786,28.198z"/>
<polygon points="115.903,31.885 115.903,19.629 128.549,19.629 128.549,15.942 115.903,15.942 115.903,4.297 129.575,4.297 
	129.575,0.586 111.801,0.586 111.801,35.596 130.356,35.596 130.356,31.885 "/>
<path d="M2.224,43.605c-0.514,0.517-0.772,1.221-0.772,2.112v1.378H0v1.162h1.453v7.338h1.353v-7.338h1.992v-1.162H2.806v-1.312
	c0-1.201,0.476-1.801,1.427-1.801c0.337,0,0.639,0.075,0.905,0.224v-1.229c-0.244-0.1-0.573-0.149-0.988-0.149
	C3.381,42.829,2.739,43.088,2.224,43.605z"/>
<path d="M21.927,46.896c-1.091,0-2.053,0.266-2.889,0.797v1.395c0.824-0.697,1.749-1.046,2.772-1.046
	c1.167,0,1.751,0.722,1.751,2.167l-2.548,0.357c-1.871,0.26-2.806,1.184-2.806,2.772c0,0.742,0.239,1.336,0.718,1.785
	c0.479,0.448,1.141,0.672,1.988,0.672c1.151,0,2.022-0.509,2.615-1.527h0.033v1.328h1.361v-5.528
	C24.923,47.954,23.924,46.896,21.927,46.896z M23.562,52.143c0,0.725-0.22,1.324-0.66,1.797c-0.44,0.473-0.998,0.71-1.673,0.71
	c-0.493,0-0.887-0.131-1.183-0.394c-0.296-0.262-0.444-0.602-0.444-1.017c0-0.57,0.16-0.967,0.481-1.191
	c0.321-0.224,0.797-0.38,1.428-0.469l2.05-0.282V52.143z"/>
<path d="M44.534,51.773c-0.21-0.191-0.465-0.362-0.764-0.514s-0.636-0.3-1.013-0.444c-0.282-0.11-0.534-0.213-0.755-0.307
	c-0.221-0.094-0.41-0.199-0.564-0.315c-0.155-0.116-0.273-0.249-0.353-0.398c-0.08-0.149-0.12-0.335-0.12-0.556
	c0-0.177,0.04-0.339,0.12-0.486c0.08-0.146,0.194-0.272,0.34-0.378c0.146-0.105,0.322-0.187,0.527-0.245
	c0.205-0.058,0.434-0.087,0.689-0.087c0.813,0,1.533,0.205,2.158,0.615v-1.378c-0.581-0.255-1.24-0.382-1.976-0.382
	c-0.415,0-0.818,0.053-1.208,0.158c-0.39,0.105-0.738,0.261-1.042,0.469c-0.304,0.207-0.548,0.465-0.73,0.772
	c-0.183,0.307-0.274,0.66-0.274,1.058c0,0.327,0.048,0.612,0.145,0.855c0.097,0.244,0.241,0.461,0.432,0.652
	s0.429,0.363,0.714,0.515c0.285,0.152,0.615,0.302,0.992,0.452c0.271,0.105,0.524,0.206,0.76,0.303
	c0.235,0.097,0.44,0.206,0.614,0.328s0.313,0.261,0.415,0.419c0.102,0.158,0.154,0.35,0.154,0.577c0,0.797-0.598,1.195-1.793,1.195
	c-0.891,0-1.707-0.274-2.449-0.822v1.461c0.642,0.337,1.4,0.506,2.274,0.506c0.443,0,0.866-0.05,1.27-0.149
	c0.404-0.1,0.761-0.252,1.071-0.457c0.31-0.205,0.557-0.462,0.743-0.772c0.185-0.31,0.278-0.675,0.278-1.096
	c0-0.343-0.057-0.639-0.17-0.888C44.906,52.184,44.744,51.964,44.534,51.773z"/>
<path d="M64.045,46.896c-1.207,0-2.136,0.537-2.789,1.61h-0.033v-5.495h-1.361v12.584h1.361v-4.814c0-0.802,0.227-1.46,0.681-1.972
	c0.454-0.512,1.013-0.768,1.677-0.768c1.317,0,1.975,0.885,1.975,2.656v4.897h1.362v-5.238
	C66.917,48.05,65.959,46.896,64.045,46.896z"/>
<path d="M82.759,43.17c-0.244,0-0.451,0.084-0.623,0.253c-0.172,0.169-0.257,0.381-0.257,0.635c0,0.255,0.086,0.465,0.257,0.631
	s0.379,0.249,0.623,0.249c0.249,0,0.461-0.086,0.635-0.257s0.261-0.379,0.261-0.623c0-0.254-0.087-0.466-0.261-0.635
	C83.22,43.254,83.009,43.17,82.759,43.17z"/>
<rect x="82.062" y="47.096" width="1.361" height="8.5"/>
<path d="M102.511,46.896c-1.328,0-2.382,0.401-3.163,1.204c-0.78,0.802-1.17,1.917-1.17,3.345c0,1.312,0.375,2.364,1.125,3.158
	c0.75,0.794,1.753,1.191,3.009,1.191c1.289,0,2.317-0.408,3.084-1.224c0.766-0.816,1.15-1.902,1.15-3.258
	c0-1.383-0.356-2.465-1.067-3.246C104.768,47.287,103.778,46.896,102.511,46.896z M104.441,53.794
	c-0.473,0.57-1.15,0.855-2.03,0.855c-0.863,0-1.552-0.291-2.067-0.872s-0.772-1.375-0.772-2.382c0-1.046,0.254-1.866,0.764-2.461
	c0.509-0.595,1.201-0.893,2.075-0.893c0.88,0,1.556,0.288,2.03,0.863c0.473,0.576,0.71,1.395,0.71,2.457
	C105.151,52.414,104.914,53.225,104.441,53.794z"/>
<path d="M125.484,46.896c-1.218,0-2.147,0.537-2.789,1.61h-0.033v-1.411H121.3v8.5h1.361v-4.847c0-0.781,0.223-1.427,0.668-1.938
	c0.445-0.512,1.009-0.768,1.689-0.768c1.317,0,1.976,0.902,1.976,2.706v4.847h1.361v-5.196c0-1.134-0.246-2.002-0.739-2.602
	C127.125,47.197,126.414,46.896,125.484,46.896z"/>
</svg>
